<svg width="200" height="31" viewBox="0 0 200 31" fill="none" xmlns="http://www.w3.org/2000/svg">
<g clip-path="url(#clip0)">
<path d="M43.6037 19.6303L44.3989 17.7194H47.6416L48.3942 19.6303H50.6236L46.2179 9.47867H46.1117L41.7061 19.6303H43.6037ZM47.0037 16.1005H45.0738L46.0653 13.7194L47.0037 16.1005ZM59.507 19.6303V17.7725H54.9155V9.86351H52.9914V19.6303H59.507ZM64.3696 19.6303V16.5384H65.7497C66.3866 16.5384 66.9241 16.4389 67.362 16.2398C67.7999 16.0408 68.1494 15.7775 68.4103 15.4502C68.6713 15.1229 68.8615 14.758 68.9809 14.3554C69.1004 13.9529 69.1601 13.5526 69.1601 13.1545C69.1601 12.4822 69.0141 11.9005 68.7222 11.4095C68.4302 10.9185 68.0056 10.5381 67.4482 10.2682C66.8909 9.99839 66.2097 9.86351 65.4046 9.86351H62.4454V19.6303H64.3696ZM65.7364 14.6673H64.3696V11.7213H65.7497C66.0859 11.7213 66.3534 11.7789 66.5525 11.8938C66.7515 12.0088 66.8997 12.1504 66.997 12.3185C67.0944 12.4865 67.1585 12.6524 67.1895 12.8161C67.2205 12.9798 67.2359 13.1102 67.2359 13.2076C67.2359 13.3315 67.2116 13.4774 67.1629 13.6455C67.1143 13.8136 67.0347 13.9751 66.9241 14.1299C66.8134 14.2846 66.6608 14.413 66.4662 14.5147C66.2716 14.6164 66.0283 14.6673 65.7364 14.6673ZM73.7572 19.6303V15.6626H78.1231V19.6303H80.0473V9.86351H78.1231V13.8047H73.7572V9.86351H71.8331V19.6303H73.7572ZM84.3127 19.6303L85.108 17.7194H88.3506L89.1032 19.6303H91.3326L86.9269 9.47867H86.8207L82.4151 19.6303H84.3127ZM87.7127 16.1005H85.7828L86.7743 13.7194L87.7127 16.1005Z" fill="white"/>
<path d="M100.885 19.6303V15.7953H104.508V13.9374H100.885V11.7213H105.065V9.86351H98.9612V19.6303H100.885ZM109.795 19.6303V9.86351H107.871V19.6303H109.795ZM122.063 20.0284V9.86351H120.125L120.164 15.7498L113.344 9.47867H113.265V19.6303H115.215L115.176 13.8569L122.01 20.0284H122.063ZM126.328 19.6303L127.123 17.7194H130.366L131.119 19.6303H133.348L128.942 9.47867H128.836L124.43 19.6303H126.328ZM129.728 16.1005H127.798L128.79 13.7194L129.728 16.1005ZM144.514 20.0284V9.86351H142.576L142.615 15.7488L135.795 9.47867H135.716V19.6303H137.666L137.628 13.8569L144.461 20.0284H144.514ZM152.283 19.7365C152.787 19.7453 153.246 19.6922 153.663 19.5772C154.078 19.4623 154.429 19.3296 154.718 19.1791C155.005 19.0287 155.202 18.9093 155.308 18.8209L154.512 17.0957C154.317 17.2815 154.034 17.4585 153.663 17.6265C153.291 17.7946 152.844 17.8787 152.322 17.8787C151.871 17.8787 151.466 17.8035 151.108 17.6531C150.75 17.5027 150.442 17.2882 150.186 17.0095C149.929 16.7308 149.732 16.3969 149.595 16.0076C149.458 15.6183 149.39 15.1893 149.39 14.7204C149.39 14.278 149.464 13.8689 149.615 13.4929C149.765 13.1169 149.971 12.7874 150.232 12.5043C150.493 12.2211 150.793 12.0022 151.135 11.8474C151.475 11.6926 151.831 11.6152 152.203 11.6152C152.681 11.6152 153.102 11.7059 153.47 11.8872C153.837 12.0685 154.131 12.2433 154.353 12.4114L155.109 10.5934C154.791 10.3899 154.379 10.1997 153.875 10.0227C153.371 9.84578 152.791 9.75734 152.137 9.75734C151.428 9.75734 150.783 9.88123 150.199 10.1289C149.615 10.3766 149.113 10.7261 148.693 11.1773C148.272 11.6284 147.95 12.1637 147.724 12.7829C147.499 13.4022 147.386 14.0834 147.386 14.8265C147.386 15.49 147.496 16.1137 147.718 16.6976C147.938 17.2815 148.259 17.7991 148.68 18.2502C149.1 18.7014 149.612 19.0575 150.219 19.3185C150.825 19.5794 151.513 19.7188 152.283 19.7365ZM165.028 19.6303V17.7725H160.104V15.6626H164.298V13.8047H160.104V11.7213H164.842V9.86351H158.18V19.6303H165.028ZM179.742 19.6303V17.7725H175.151V9.86351H173.227V19.6303H179.742ZM183.477 19.6303L184.272 17.7194H187.515L188.267 19.6303H190.497L186.091 9.47867H185.985L181.579 19.6303H183.477ZM186.877 16.1005H184.947L185.938 13.7194L186.877 16.1005ZM196.116 19.6303C196.549 19.6303 196.969 19.5794 197.376 19.4777C197.783 19.376 198.148 19.2123 198.471 18.9867C198.793 18.7611 199.05 18.4647 199.241 18.0976C199.43 17.7305 199.526 17.2815 199.526 16.7507C199.526 16.1756 199.344 15.6825 198.982 15.2711C198.71 14.9626 198.364 14.7075 197.945 14.506L197.897 14.4844L197.937 14.4602C198.152 14.3225 198.339 14.1593 198.501 13.9708L198.617 13.8246C198.913 13.4221 199.062 12.9201 199.062 12.3185C199.062 11.5045 198.76 10.8919 198.159 10.4806C197.557 10.0692 196.748 9.86351 195.731 9.86351H192.864V19.6303H196.116ZM195.956 13.8578H194.789V11.7213H195.824C196.204 11.7213 196.507 11.8054 196.733 11.9735C196.958 12.1415 197.071 12.3936 197.071 12.7299C197.071 13.0218 196.98 13.2827 196.799 13.5128C196.617 13.7428 196.337 13.8578 195.956 13.8578ZM196.023 17.8389H194.789V15.7156H195.89C196.164 15.7156 196.428 15.7444 196.68 15.8019C196.932 15.8594 197.137 15.9611 197.297 16.1071C197.456 16.2531 197.536 16.4676 197.536 16.7507C197.536 16.9984 197.469 17.2041 197.337 17.3678C197.204 17.5315 197.022 17.6509 196.792 17.7261C196.562 17.8012 196.305 17.8389 196.023 17.8389Z" fill="#A9ACAE"/>
<path d="M15.1659 30.3318C23.5418 30.3318 30.3318 23.5418 30.3318 15.1659C30.3318 6.78999 23.5418 0 15.1659 0C6.78999 0 0 6.78999 0 15.1659C0 23.5418 6.78999 30.3318 15.1659 30.3318Z" fill="#53595D"/>
<path d="M15.1658 5.99568V6.0041L15.1686 12.0053L16.2549 14.7196L15.1714 13.8158V16.7126C15.177 16.7209 15.1826 16.7266 15.1882 16.735C16.9341 18.9188 19.1123 20.7433 21.5965 22.0738L15.1658 5.99568Z" fill="url(#paint0_linear)"/>
<path d="M15.166 5.99568V6.0041L15.1632 12.0053L14.0769 14.7196L15.1605 13.8158V16.7126C15.1549 16.7209 15.1492 16.7266 15.1436 16.735C13.3977 18.9188 11.2195 20.7433 8.73535 22.0738L15.166 5.99568Z" fill="url(#paint1_linear)"/>
<path d="M15.1656 20.3923C15.9717 20.3923 16.6252 19.7388 16.6252 18.9327C16.6252 18.1265 15.9717 17.4731 15.1656 17.4731C14.3595 17.4731 13.7061 18.1265 13.7061 18.9327C13.7061 19.7388 14.3595 20.3923 15.1656 20.3923Z" fill="white"/>
</g>
<defs>
<linearGradient id="paint0_linear" x1="18.3819" y1="5.94792" x2="18.3819" y2="22.2453" gradientUnits="userSpaceOnUse">
<stop stop-color="white"/>
<stop offset="1" stop-color="white" stop-opacity="0.6"/>
</linearGradient>
<linearGradient id="paint1_linear" x1="11.9523" y1="22.1318" x2="11.9523" y2="6.1378" gradientUnits="userSpaceOnUse">
<stop stop-color="white"/>
<stop offset="1" stop-color="white" stop-opacity="0.6"/>
</linearGradient>
<clipPath id="clip0">
<rect width="200" height="30.3318" fill="white"/>
</clipPath>
</defs>
</svg>
