<svg width="200" height="36" viewBox="0 0 200 36" fill="none" xmlns="http://www.w3.org/2000/svg">
<g clip-path="url(#clip0)">
<path d="M40.2838 10.004C33.0329 10.004 27.3674 15.5359 27.3674 22.9414C27.3674 30.347 32.8898 35.8315 40.2838 35.8315C47.6778 35.8315 53.2962 30.2523 53.2962 22.8941C53.2962 15.5832 47.7738 10.004 40.2838 10.004ZM40.3327 30.4945C36.2036 30.4945 33.1778 27.2715 33.1778 22.9432C33.1778 18.5658 36.1547 15.3447 40.2838 15.3447C44.4618 15.3447 47.4857 18.615 47.4857 22.9432C47.4857 27.2715 44.4618 30.4945 40.3327 30.4945ZM54.8797 15.6323H58.4813V35.3526H64.2429V10.4847H54.8797V15.6323ZM12.8675 15.3428C15.8932 15.3428 18.2938 17.2184 19.2052 20.0079H25.3037C24.1986 14.0445 19.3012 10.004 12.9164 10.004C5.66552 10.004 0 15.5359 0 22.9432C0 30.3506 5.5224 35.8333 12.9164 35.8333C19.1581 35.8333 24.1514 31.7928 25.2566 25.7802H19.2052C18.3409 28.5698 15.9403 30.4945 12.9146 30.4945C8.73655 30.4945 5.80864 27.2715 5.80864 22.9432C5.81047 18.5658 8.69125 15.3428 12.8675 15.3428ZM164.353 20.5378L160.128 19.9133C158.111 19.6256 156.671 18.9519 156.671 17.364C156.671 15.6323 158.544 14.7674 161.088 14.7674C163.873 14.7674 165.65 15.9692 166.034 17.9412H171.604C170.979 12.9392 167.138 10.0058 161.233 10.0058C155.134 10.0058 151.101 13.1323 151.101 17.557C151.101 21.7888 153.743 24.2434 159.071 25.0118L163.296 25.6363C165.362 25.924 166.514 26.7434 166.514 28.2821C166.514 30.2541 164.498 31.0717 161.713 31.0717C158.303 31.0717 156.383 29.6769 156.095 27.561H150.429C150.958 32.4191 154.75 35.8333 161.664 35.8333C167.955 35.8333 172.131 32.9472 172.131 27.9925C172.131 23.5678 169.107 21.2589 164.353 20.5378ZM61.3621 0.240358C59.2496 0.240358 57.6646 1.77901 57.6646 3.89489C57.6646 6.01076 59.2479 7.54941 61.3621 7.54941C63.4747 7.54941 65.0602 6.01076 65.0602 3.89489C65.0602 1.77901 63.4747 0.240358 61.3621 0.240358ZM145.916 18.9992C145.916 13.613 142.651 10.0058 135.737 10.0058C129.207 10.0058 125.558 13.3253 124.837 18.4238H130.552C130.84 16.4518 132.376 14.8166 135.641 14.8166C138.571 14.8166 140.011 16.1149 140.011 17.7027C140.011 19.7713 137.369 20.2993 134.105 20.6362C129.687 21.1169 124.214 22.6555 124.214 28.4278C124.214 32.9017 127.528 35.786 132.809 35.786C136.938 35.786 139.531 34.0543 140.828 31.3121C141.021 33.7648 142.845 35.3526 145.391 35.3526H148.752V30.2068H145.918V18.9992H145.916ZM140.25 25.2521C140.25 28.5716 137.369 31.0243 133.864 31.0243C131.703 31.0243 129.878 30.1102 129.878 28.1874C129.878 25.7347 132.807 25.0609 135.496 24.7733C138.089 24.5329 139.529 23.9556 140.25 22.8486V25.2521ZM109.665 10.004C106.447 10.004 103.759 11.3514 101.838 13.6112V0H96.0769V35.3526H101.742V32.0823C103.662 34.4385 106.401 35.8333 109.665 35.8333C116.579 35.8333 121.813 30.3506 121.813 22.9432C121.813 15.5359 116.483 10.004 109.665 10.004ZM108.801 30.4945C104.672 30.4945 101.646 27.2715 101.646 22.9432C101.646 18.615 104.719 15.3447 108.848 15.3447C113.026 15.3447 115.954 18.5677 115.954 22.9432C115.954 27.2715 112.93 30.4945 108.801 30.4945ZM82.2958 10.004C78.551 10.004 76.1014 11.5426 74.6613 13.7076V10.4847H68.9465V35.3508H74.7081V21.8362C74.7081 18.0359 77.1086 15.3428 80.6618 15.3428C83.9755 15.3428 86.039 17.6991 86.039 21.1151V35.3526H91.8006V20.6835C91.8028 14.4287 88.5866 10.004 82.2958 10.004ZM199.596 22.1257C199.596 15.0078 194.411 10.0058 187.448 10.0058C180.054 10.0058 174.628 15.585 174.628 22.9432C174.628 30.6875 180.438 35.8333 187.544 35.8333C193.547 35.8333 198.252 32.2735 199.451 27.2241H193.448C192.584 29.4365 190.472 30.6875 187.638 30.6875C183.94 30.6875 181.155 28.3786 180.532 24.3381H199.594V22.1257H199.596ZM180.869 20.201C181.783 16.7376 184.375 15.0552 187.352 15.0552C190.617 15.0552 193.114 16.9306 193.69 20.201H180.869Z" fill="#A9ACAE"/>
</g>
<defs>
<clipPath id="clip0">
<rect width="200" height="35.8333" fill="white"/>
</clipPath>
</defs>
</svg>
