<svg width="200" height="52" viewBox="0 0 200 52" fill="none" xmlns="http://www.w3.org/2000/svg">
<path d="M104.453 51.1794C95.1783 51.1794 94.6025 45.7239 96.3161 39.5239H103.808C103.079 42.9463 102.615 45.8223 106.732 45.8223C109.263 45.8223 110.851 44.1874 111.368 41.7543C112.738 35.3074 97.7439 34.9114 100.013 24.2456C101.203 18.6416 104.832 14.1776 113.959 14.1776C121.251 14.1776 124.176 17.4501 122.087 24.9423H114.794C115.364 22.2622 115.498 19.5342 112.473 19.5342C110.043 19.5342 108.32 20.8747 107.793 23.3525C106.346 30.1472 121.551 29.5521 119.156 40.8134C117.183 50.0895 110.157 51.1794 104.453 51.1794ZM148.243 50.5845L155.861 14.7733H175.405L174.233 20.2793H162.18L160.302 29.108H171.412L170.241 34.6136H159.129L156.906 45.0802H169.356L168.185 50.5845H148.243ZM140.956 29.1078L144.006 14.7726H151.496L143.878 50.587H136.392L139.788 34.6138H131.206L127.809 50.587H120.318L127.933 14.7726H135.425L132.377 29.1078H140.956ZM85.0852 24.9424L72.5286 50.5871H64.9769L82.5134 14.7733H92.385L94.4915 50.5871H86.5988L85.0852 24.9424ZM190.869 14.7704C200.69 14.7704 201.135 21.3185 198.76 32.4795C197.589 37.9883 195.753 50.5847 182.954 50.5847H170.754C173.292 38.6464 175.83 26.7073 178.369 14.7704H190.869ZM191.129 32.6786C192.53 26.0818 193.767 20.2791 188.558 20.2791H184.688C182.931 28.5453 181.172 36.8115 179.414 45.0804H183.035C187.599 45.0804 189.218 41.6563 191.129 32.6786ZM63.1934 50.5871H55.7052L59.1012 34.6148H50.5191L47.1227 50.5871H39.6305L47.2493 14.7737H54.7379L51.6896 29.1079H60.2721L63.3196 14.7737H70.8082L63.1934 50.5871ZM24.728 29.1078L26.6045 20.2791H18.026L16.1459 29.1078H24.728ZM41.5834 20.2791H34.0958L32.2188 29.1078H39.7065L38.5351 34.6147H31.0483L27.6488 50.587H20.1606L23.5566 34.6147H14.9758L11.579 50.587H4.08993L7.48635 34.6147H0L1.17047 29.1078H8.65682L10.5333 20.2791H3.04698L4.2179 14.7735H11.7047L14.753 0.447357H22.2412L19.196 14.7735H27.7781L30.8242 0.447357H38.3136L35.2676 14.7735H42.7548L41.5834 20.2791Z" fill="#A9ACAE"/>
</svg>
