<svg width="200" height="16" viewBox="0 0 200 16" fill="none" xmlns="http://www.w3.org/2000/svg">
<g clip-path="url(#clip0)">
<path d="M46.4343 15.5973H43.6971L41.9599 12.1117H31.7956L30.0555 15.5973H27.3212L35.3051 0.0105556H38.4526L46.4343 15.5973ZM40.746 9.78425L36.9015 2.23175L33.0088 9.78425H40.746ZM77.1467 15.5973H74.035L62.5131 2.81456V15.5973H60.0131V0.0105556H63.1175L74.6467 12.7986V0.0113095H77.1467V15.5973ZM107.693 2.33353V0.0113095H90.7686V2.33353H97.9818V4.67385H93.2686V6.99909H97.9818V15.5973H100.482V6.99909H105.193V4.67385H100.482V2.33353H107.693ZM137.115 2.33579H123.815V6.63492H132.653V8.96242H123.815V13.2774H137.127V15.5996H121.315V0.0105556H137.115V2.33579ZM200 15.5973H197.261L195.523 12.1117H185.356L183.619 15.5973H180.882L188.866 0.0105556H192.013L200 15.5973ZM194.312 9.78425L190.465 2.23175L186.572 9.78425H194.312ZM12.3095 0H0V15.5966H2.5V9.64401H12.3102C14.8883 9.64401 16.9781 7.47484 16.9781 4.81107C16.9781 2.14881 14.8883 0 12.3095 0ZM12.3095 7.31349H2.5V2.32976H12.3102C12.6259 2.32927 12.9386 2.39309 13.2304 2.51759C13.5222 2.64208 13.7873 2.8248 14.0107 3.05528C14.234 3.28576 14.4111 3.55947 14.5319 3.86076C14.6527 4.16204 14.7148 4.48498 14.7146 4.81107C14.7168 6.1848 13.6394 7.31349 12.3095 7.31349ZM167.87 15.5966L163.874 9.5573C166.064 9.15996 167.736 7.18833 167.736 4.81107C167.736 2.14806 165.647 0 163.068 0H150.758V15.5966H153.258V9.64401H160.88L164.961 15.5966H167.87ZM153.256 2.33052H163.066C163.381 2.33012 163.694 2.39399 163.986 2.51847C164.277 2.64295 164.542 2.82561 164.766 3.05599C164.989 3.28637 165.166 3.55996 165.287 3.86111C165.408 4.16226 165.47 4.48507 165.47 4.81107C165.47 6.1848 164.393 7.31349 163.066 7.31349H153.256V2.32976V2.33052Z" fill="#A9ACAE"/>
</g>
<defs>
<clipPath id="clip0">
<rect width="200" height="15.8333" fill="white"/>
</clipPath>
</defs>
</svg>
