<svg width="200" height="55" viewBox="0 0 200 55" fill="none" xmlns="http://www.w3.org/2000/svg">
<path d="M70.1001 7.81401H64.6668V5.29877H78.2001V7.81401H72.7668V21.6646H70.0668L70.1001 7.81401ZM80.7668 5.3323H83.6001L87.2001 17.7408H87.2334L90.6334 5.3323H93.1334L96.5334 17.7408H96.5668L100.2 5.3323H103.033L98.0668 21.6982H95.1668L91.8668 9.69206H91.8334L88.5334 21.6982H85.6334L80.7668 5.3323ZM112.1 19.5183C115.067 19.5183 117.367 17.2378 117.367 13.3811C117.367 9.69206 115.067 7.41157 112.1 7.41157C109.1 7.41157 106.833 9.69206 106.833 13.3811C106.833 17.2378 109.133 19.5183 112.1 19.5183ZM112.1 5.03047C116.667 5.03047 120.1 8.31706 120.1 13.4146C120.1 18.6128 116.633 21.9664 112.1 21.9664C107.533 21.9664 104.067 18.6128 104.067 13.4146C104.067 8.31706 107.567 5.03047 112.1 5.03047ZM143.167 5.3323H145.867V21.6982H143.167V12.5427V5.3323ZM157.433 5.03047C159.433 5.03047 161.4 5.66767 163 6.87499C163 6.87499 161.467 8.75303 161.367 8.7195C160.233 7.91462 158.867 7.47864 157.5 7.47864C154.267 7.47864 152.133 9.92681 152.133 13.3811C152.133 17.1372 154.133 19.5518 157.5 19.5518C158.6 19.5518 159.667 19.2835 160.633 18.7469V14.8567H156.7V12.7774H163.133V20.189C161.467 21.3628 159.467 22 157.433 21.9664C152.533 21.9664 149.367 18.5122 149.367 13.3475C149.367 8.55181 152.567 5.03047 157.433 5.03047ZM166.933 5.3323H169.633L174.8 13.0122L179.967 5.3323H182.667V21.6982H180.067V9.49084L174.767 17.2043L169.467 9.49084V21.6982H166.9V5.3323H166.933ZM190.033 15.8963H195.133L192.6 8.28353H192.567L190.033 15.8963ZM191.033 5.3323H194.2L200 21.6982H197.1L195.9 18.1768H189.3L188.133 21.6982H185.2L191.033 5.3323ZM129.267 18.1433C130.667 18.9482 132.033 19.4847 133.733 19.4847C135.8 19.4847 136.833 18.5457 136.833 17.2378C136.833 13.5488 128 15.9634 128 9.7256C128 7.10974 130.1 5.03047 133.6 5.03047C135.633 4.99694 137.6 5.53352 139.367 6.53962L137.6 8.41767C136.367 7.81401 135.033 7.51218 133.7 7.51218C131.867 7.51218 130.8 8.48474 130.8 9.69206C130.8 13.3811 139.633 10.8658 139.633 17.2043C139.633 19.8872 137.667 21.9329 133.733 21.9329C131.433 21.9329 128.933 21.0945 127.433 20.0213C127.433 20.0549 129.267 18.1433 129.267 18.1433ZM64.1001 31.1219H65.6668L71.5334 47.8567H71.5668L77.4334 31.1219H79.0334L72.4001 49.4665H70.7001L64.1001 31.1219ZM82.8334 31.1219H94.5668V32.4634H84.2334V39.4725H93.5668V40.7134H84.2334V48.0914H94.7001V49.4329H82.8001V31.1219H82.8334ZM99.4334 31.1219H101L111.567 47.3201V31.1219H112.933V49.4665H111.367L100.8 33.2683V49.4665H99.4334V31.1219ZM123.267 32.4634H116.667V31.1219H131.3V32.4634H124.7V49.4665H123.3L123.267 32.4634ZM134.933 31.1219H136.367V42.7591C136.367 46.4817 138.733 48.4604 141.7 48.4604C144.667 48.4604 147.067 46.4817 147.067 42.7591V31.1219H148.5V42.7591C148.5 47.4207 145.5 49.7683 141.7 49.7683C137.9 49.7683 134.933 47.4207 134.933 42.7591V31.1219ZM153.6 31.1219H160.733C165 31.1219 166.533 33.8049 166.533 36.4543C166.533 38.6341 165.333 40.9482 162.533 41.6524L166.467 49.5H164.867L161.167 41.8536H155V49.5H153.6C153.6 49.4665 153.6 31.1219 153.6 31.1219ZM160.667 40.5793C163.867 40.5793 165.1 38.4329 165.1 36.4543C165.1 34.4085 163.933 32.3963 160.733 32.3963H155V40.5793H160.667ZM171.167 31.1219H182.9V32.4634H172.567V39.4725H181.9V40.7134H172.567V48.0914H183.033V49.4329H171.133L171.167 31.1219ZM187.667 46.7835C189.3 47.8902 191.233 48.4604 193.2 48.4604C196.367 48.4604 197.833 46.9177 197.833 44.8384C197.833 39.1707 187.2 42.7927 187.2 35.6829C187.2 32.9664 189.367 30.8536 193.033 30.8536C194.967 30.8201 196.867 31.2896 198.6 32.1616L198.033 33.4024C196.5 32.5975 194.8 32.1616 193.1 32.1616C190.333 32.1616 188.7 33.6372 188.7 35.6494C188.7 41.3841 199.333 37.628 199.333 44.8384C199.333 47.6555 197.333 49.8018 193.2 49.8018C190.6 49.8018 188.3 48.9299 186.933 47.9573L187.667 46.7835Z" fill="#A9ACAE"/>
<path d="M26.3 0L0 27.3994L26.3 54.7988L52.6 27.3994L26.3 0Z" fill="#A9ACAE"/>
<path d="M12.4334 35.1799C12.2334 26.3933 22.3667 27.5336 22.3667 23.0397C22.3667 21.564 21.2667 20.3232 18.8334 20.3232C17.0334 20.3232 15.3334 21.2622 14.1001 22.436L12.2334 20.4909C14.0334 18.7134 16.4334 17.7073 18.9667 17.6403C23.1667 17.6403 25.3334 20.0884 25.3334 22.9726C25.3334 29.6128 15.4667 28.439 15.4667 33.9726H25.1667V36.622H12.5001L12.4334 35.1799ZM45.1334 22.2348L42.8667 24.5488H39.1001C39.8334 25.689 40.2334 27.064 40.2001 28.439C40.2001 33.2683 36.8667 36.9238 32.4667 36.9238C29.0667 36.9238 26.6667 34.5762 26.6667 30.7195C26.6667 25.8567 29.9667 22.2012 34.3667 22.2012C34.3667 22.2348 45.1334 22.2348 45.1334 22.2348ZM32.7334 34.5092C35.1667 34.5092 37.2001 31.6585 37.2001 28.4726C37.2001 25.9573 36.0667 24.6494 34.1334 24.6494C31.6667 24.6494 29.6334 27.5336 29.6334 30.7195C29.6667 33.2012 30.8001 34.5092 32.7334 34.5092Z" fill="white"/>
</svg>
