<svg width="104" height="104" viewBox="0 0 104 104" fill="none" xmlns="http://www.w3.org/2000/svg">
<path fill-rule="evenodd" clip-rule="evenodd" d="M37.2328 49.5355C38.1705 50.4732 39.4422 51 40.7683 51C42.0944 51 43.3662 50.4732 44.3038 49.5355C45.2415 48.5979 45.7683 47.3261 45.7683 46C45.7683 42.6667 40.7683 37 40.7683 37C40.7683 37 35.7683 42.6667 35.7683 46C35.7683 47.3261 36.2951 48.5979 37.2328 49.5355ZM35.7684 57.9638L67.0914 46.5631L68.2315 49.6954L36.9084 61.0961L35.7684 57.9638ZM57 67L52 57L47 67H57Z" fill="#0EF2F2"/>
<rect x="0.5" y="0.5" width="103" height="103" rx="51.5" stroke="#0EF2F2"/>
</svg>
