<svg width="200" height="42" viewBox="0 0 200 42" fill="none" xmlns="http://www.w3.org/2000/svg">
<g clip-path="url(#clip0)">
<path d="M55.6741 31.274V14.1966C55.6741 12.4424 57.0964 11.0204 58.8505 11.0204H59.0834V31.274H55.6741Z" fill="#A9ACAE"/>
<path d="M64.0254 31.274V11.0204H67.6124L75.8245 25.7189V11.0204H75.909C77.6632 11.0204 79.0855 12.4424 79.0855 14.1966V31.274H75.4982L67.2864 16.5755V31.274H64.0254Z" fill="#A9ACAE"/>
<path d="M89.8293 31.7659C87.7145 31.7659 86.0643 31.1198 84.8783 29.8276C83.6925 28.535 83.0996 26.8183 83.0996 24.6771H86.5089C86.5089 25.931 86.7857 26.9341 87.3389 27.6864C87.9123 28.4192 88.7423 28.7858 89.8293 28.7858C90.9163 28.7858 91.7464 28.4192 92.3194 27.6864C92.9126 26.9341 93.2089 25.9406 93.2089 24.7062V14.1966C93.2089 12.4424 94.6312 11.0204 96.3854 11.0204H96.6182V24.7062C96.6182 26.8471 96.0154 28.5641 94.8098 29.8563C93.6241 31.1294 91.9637 31.7659 89.8293 31.7659Z" fill="#A9ACAE"/>
<path d="M101.249 11.0204H113.226C113.226 12.6663 111.891 14.0006 110.245 14.0006H104.658V19.7294H113.226V22.7096H104.658V28.2938H113.226V31.274H101.249V19.7294V14.0006V11.0204Z" fill="#A9ACAE"/>
<path d="M187.786 11.0204H199.763C199.763 12.6663 198.428 14.0006 196.783 14.0006H191.195V19.7294H199.763V22.7096H191.195V28.2938H199.763V31.274H187.786V19.7294V14.0006V11.0204Z" fill="#A9ACAE"/>
<path d="M127.164 31.7653C124.206 31.7653 121.865 30.7817 120.14 28.8139C118.415 26.8464 117.552 24.2907 117.552 21.1464C117.552 18.0025 118.415 15.4467 120.14 13.4789C121.865 11.5115 124.206 10.5279 127.164 10.5279C129.646 10.5279 131.688 11.2223 133.29 12.6111C134.892 13.9805 135.834 15.765 136.116 17.9638H135.353C133.857 17.9638 132.663 16.8331 131.776 15.6282C131.52 15.2808 131.224 14.9693 130.887 14.6944C129.937 13.9034 128.704 13.508 127.19 13.508C125.166 13.508 123.582 14.2025 122.437 15.5913C121.311 16.9607 120.747 18.8127 120.747 21.1464C120.747 23.4805 121.311 25.3421 122.437 26.731C123.582 28.1003 125.166 28.7851 127.19 28.7851C128.704 28.7851 129.937 28.3898 130.887 27.5988C131.224 27.3238 131.52 27.0124 131.776 26.665C132.663 25.4601 133.857 24.3294 135.353 24.3294H136.116C135.834 26.5282 134.892 28.3223 133.29 29.7111C131.688 31.0805 129.646 31.7653 127.164 31.7653Z" fill="#A9ACAE"/>
<path d="M144.919 31.274V14.1452H138.901C138.901 12.4195 140.3 11.0204 142.025 11.0204H154.376V14.1452H148.328V31.274H144.919Z" fill="#A9ACAE"/>
<path d="M158.703 31.274V14.1966C158.703 12.4424 160.125 11.0204 161.879 11.0204H162.112V31.274H158.703Z" fill="#A9ACAE"/>
<path d="M173.315 31.274L166.437 11.0204H167.824C169.205 11.0204 170.428 11.9133 170.849 13.2291L174.945 26.0372L179.042 13.2291C179.462 11.9133 180.686 11.0204 182.067 11.0204H183.454L176.576 31.274H173.315Z" fill="#A9ACAE"/>
<path d="M5.02269 7.27431C5.27969 6.95109 5.55204 6.64025 5.82443 6.32941C5.83665 6.31393 5.86427 6.31084 5.87653 6.29536C5.90099 6.26471 5.94087 6.24613 5.96535 6.21548L5.98981 6.18452C6.17969 6.00898 6.38176 5.81796 6.61467 5.6517C7.43882 5.02601 8.29415 4.55078 9.19603 4.23777C12.0887 3.22229 15.3089 3.8483 17.834 6.2322C21.36 9.53715 21.0442 14.8613 18.2296 18.4C14.6727 23.6755 8.56056 31.0359 17.0234 37.6291C18.5451 38.8146 19.6739 39.792 24.4671 41.1771C21.3321 41.7548 18.4256 41.5749 15.1903 40.7486C12.9018 39.457 9.30378 36.6913 8.07966 32.9557C6.2295 27.291 11.3369 18.8229 13.8052 15.5613C17.1943 11.0477 11.7106 6.1613 7.67346 11.6164C5.56312 14.4594 1.87124 22.504 3.15421 28.4712C3.90436 31.8551 4.90427 34.3217 8.86882 37.7099C8.13362 37.2762 7.41972 36.7839 6.72715 36.2334C-2.48421 27.6533 -1.41551 14.3861 5.02269 7.27431Z" fill="white"/>
<path d="M36.3796 34.3594C36.1227 34.6827 35.8502 34.9935 35.5778 35.3043C35.5657 35.3198 35.5378 35.3229 35.5258 35.3381C35.5013 35.369 35.4614 35.3876 35.4369 35.4183L35.4125 35.4492C35.2227 35.6248 35.0205 35.8155 34.7877 35.982C33.9632 36.6077 33.1081 37.083 32.2063 37.3957C29.3134 38.4114 26.0936 37.7854 23.5682 35.4015C20.0425 32.0966 20.3583 26.7724 23.1728 23.2334C26.7295 17.9582 32.8416 10.5978 24.3787 4.00464C22.857 2.81919 21.7282 1.84148 16.9351 0.4565C20.07 -0.121023 22.9765 0.0586043 26.2118 0.884951C28.5004 2.17678 32.0985 4.94241 33.3227 8.67802C35.1728 14.3427 30.0654 22.8108 27.597 26.0721C24.2081 30.5861 29.6917 35.4721 33.7289 30.0173C35.8391 27.1743 39.531 19.1297 38.2481 13.1625C37.4979 9.77863 36.4979 7.31207 32.5335 3.92384C33.2685 4.35758 33.9824 4.84953 34.675 5.40031C43.8865 13.9805 42.8177 27.2477 36.3796 34.3594Z" fill="white"/>
</g>
<defs>
<clipPath id="clip0">
<rect width="200" height="41.7957" fill="white"/>
</clipPath>
</defs>
</svg>
