<svg width="200" height="44" viewBox="0 0 200 44" fill="none" xmlns="http://www.w3.org/2000/svg">
<g clip-path="url(#clip0)">
<path d="M78.2449 13.9982C79.4719 14.7399 80.5102 15.7597 81.1707 17.1504C81.9258 18.5411 82.3033 20.21 82.3033 22.0641C82.3033 23.9184 81.9258 25.4945 81.0764 26.8852C80.3213 28.2758 79.1887 29.2957 77.7729 29.9445C76.3572 30.6863 74.6582 31.0572 72.865 31.0572C71.8268 31.0572 70.8828 30.8717 69.9391 30.501C68.9951 30.2229 68.1457 29.6664 67.485 29.0176V38.6596H62.0107V13.2565H66.7299L67.202 15.2962C69.2783 13.6274 71.5436 12.793 73.9031 12.793C75.5076 12.793 77.0178 13.1638 78.2449 13.9982ZM75.2246 25.4945C76.1684 24.6602 76.6402 23.5475 76.6402 22.1568C76.6402 20.7662 76.1684 19.6537 75.3189 18.7265C74.4695 17.7994 73.3369 17.4286 72.11 17.4286C71.0717 17.4286 70.1277 17.614 69.3727 18.0775C68.6176 18.4484 68.0514 19.0974 67.5795 19.9318V24.1037C67.8625 24.9383 68.4289 25.5871 69.0897 26.0508C69.8447 26.5143 70.6941 26.7924 71.7324 26.7924C73.1481 26.7924 74.2807 26.3289 75.2246 25.4945Z" fill="#A9ACAE"/>
<path d="M85.5119 17.2412C86.3615 15.9432 87.4939 14.8307 89.0041 14.089C90.5142 13.3473 92.2132 12.8838 94.1009 12.8838C95.9886 12.8838 97.6875 13.2546 99.1976 14.089C100.613 14.8307 101.746 15.9432 102.595 17.3339C103.445 18.7246 103.822 20.208 103.822 21.9695C103.822 23.7311 103.445 25.2145 102.595 26.6051C101.746 27.9957 100.708 29.1082 99.1976 29.85C97.7818 30.5916 95.9886 31.0553 94.1009 31.0553C92.2132 31.0553 90.5142 30.6844 89.0041 29.9428C87.4939 29.201 86.3615 28.1813 85.5119 26.7904C84.7568 25.3998 84.2849 23.8236 84.2849 21.9695C84.2849 20.208 84.7568 18.6319 85.5119 17.2412ZM91.0806 25.307C91.8357 26.2342 92.874 26.6051 94.1009 26.6051C95.3279 26.6051 96.3662 26.1416 97.1212 25.307C97.8763 24.4727 98.2539 23.2674 98.2539 21.9695C98.2539 20.5789 97.8763 19.4663 97.1212 18.6319C96.2716 17.7048 95.3279 17.2412 94.0066 17.2412C92.7794 17.2412 91.8357 17.7048 90.9863 18.5392C90.2312 19.4663 89.8537 20.5789 89.8537 21.9695C89.8537 23.2674 90.2312 24.3801 91.0806 25.307Z" fill="#A9ACAE"/>
<path d="M112.695 0.0905991V30.5928H107.221V0.0905991H112.695Z" fill="#A9ACAE"/>
<path d="M135.158 13.7188L124.021 38.751H118.736L122.888 29.758L114.96 13.7188H121.189L125.72 23.7316L130.25 13.7188H135.158Z" fill="#A9ACAE"/>
<path d="M156.111 13.7182V30.5916C156.111 32.1678 155.639 33.6512 154.695 34.9492C153.751 36.2471 152.524 37.267 150.919 38.0086C149.315 38.7504 147.616 39.1211 145.728 39.1211C144.313 39.1211 143.086 38.9357 142.047 38.6576C141.009 38.2867 140.16 37.9158 139.499 37.5451C138.744 37.0814 137.989 36.5252 137.139 35.7836L140.349 32.075C141.104 32.8168 141.953 33.373 142.708 33.7439C143.463 34.1146 144.501 34.3928 145.634 34.3928C147.05 34.3928 148.182 34.0221 149.126 33.373C150.07 32.724 150.542 31.7043 150.542 30.499V28.0885C149.976 28.9229 149.221 29.6646 148.088 30.2209C146.955 30.7771 145.634 31.0553 144.124 31.0553C142.614 31.0553 141.104 30.6844 139.782 29.85C138.461 29.1082 137.423 27.9957 136.573 26.6051C135.818 25.2145 135.346 23.7311 135.346 22.0623C135.346 20.3934 135.724 18.8173 136.573 17.4266C137.423 16.036 138.461 14.9234 139.876 14.089C141.198 13.2546 142.614 12.8838 144.124 12.8838C145.54 12.8838 146.767 13.0692 147.899 13.44C149.032 13.8109 149.881 14.3671 150.448 15.0161L151.014 13.7182H156.111ZM150.542 24.102V19.9299C150.164 19.0955 149.598 18.4465 148.749 17.9829C147.899 17.5193 146.955 17.2412 145.823 17.2412C144.501 17.2412 143.369 17.7048 142.425 18.5392C141.481 19.3736 141.009 20.4861 141.009 21.8768C141.009 23.1748 141.481 24.3801 142.425 25.307C143.369 26.2342 144.501 26.6979 145.823 26.6979C147.994 26.6051 149.598 25.7707 150.542 24.102Z" fill="#A9ACAE"/>
<path d="M160.643 17.2431C161.492 15.8525 162.625 14.8326 164.135 13.9982C165.645 13.2565 167.344 12.793 169.232 12.793C171.119 12.793 172.818 13.1638 174.328 13.9982C175.744 14.7399 176.877 15.8525 177.726 17.2431C178.481 18.6338 178.953 20.1172 178.953 21.8787C178.953 23.6402 178.576 25.1236 177.726 26.5143C176.971 27.9049 175.839 29.0176 174.328 29.7592C172.913 30.501 171.119 30.9645 169.232 30.9645C167.344 30.9645 165.645 30.5936 164.135 29.852C162.625 29.1102 161.492 28.0904 160.643 26.6998C159.793 25.309 159.416 23.733 159.416 21.7859C159.416 20.21 159.793 18.6338 160.643 17.2431ZM166.117 25.309C166.872 26.2361 167.91 26.607 169.137 26.607C170.364 26.607 171.402 26.1434 172.158 25.309C172.913 24.4746 173.29 23.2693 173.29 21.9715C173.29 20.5807 172.913 19.4682 172.158 18.6338C171.402 17.7994 170.364 17.3358 169.137 17.3358C167.91 17.3358 166.967 17.7994 166.117 18.6338C165.268 19.4682 164.89 20.6734 164.89 21.9715C164.985 23.2693 165.362 24.3818 166.117 25.309Z" fill="#A9ACAE"/>
<path d="M198.303 14.2744C199.436 15.2015 199.906 16.4068 200 17.8902V30.5916H194.432V19.9299C194.338 18.261 193.488 17.4266 191.884 17.4266C190.657 17.4266 189.619 17.9829 188.864 19.1881C188.109 20.3934 187.731 21.8768 187.731 23.6383V30.5916H182.257V13.7182H187.259L187.636 16.4068C188.297 15.2943 189.147 14.4599 190.279 13.8109C191.412 13.1619 192.733 12.8838 194.244 12.8838C195.848 12.8838 197.264 13.3473 198.303 14.2744Z" fill="#A9ACAE"/>
<path d="M38.6031 13.4421C37.6592 12.8859 36.4322 12.8859 35.3941 13.4421L28.032 17.7069L23.0297 20.4883L15.6678 24.7529C14.7239 25.3092 13.4969 25.3092 12.4587 24.7529L6.60689 21.4152C5.66305 20.859 5.00236 19.8393 5.00236 18.7267V12.1442C5.00236 11.0316 5.56867 10.0118 6.60689 9.45553L12.3643 6.21063C13.3082 5.65436 14.5352 5.65436 15.5734 6.21063L21.3309 9.45553C22.2746 10.0118 22.9354 11.0316 22.9354 12.1442V16.4089L27.9377 13.5348V9.27012C27.9377 8.15756 27.3715 7.13773 26.3332 6.58147L15.6678 0.462502C14.7239 -0.093768 13.4969 -0.093768 12.4587 0.462502L1.60453 6.58147C0.566305 7.13773 0 8.15756 0 9.27012V21.6008C0 22.7133 0.566305 23.7332 1.60453 24.2895L12.4587 30.4084C13.4025 30.9646 14.6296 30.9646 15.6678 30.4084L23.0297 26.2363L28.032 23.3623L35.3941 19.1903C36.3379 18.634 37.5648 18.634 38.6031 19.1903L44.3605 22.4352C45.3043 22.9914 45.965 24.0113 45.965 25.1238V31.7062C45.965 32.8189 45.3988 33.8387 44.3605 34.3949L38.6031 37.7326C37.6592 38.2889 36.4322 38.2889 35.3941 37.7326L29.6367 34.4877C28.6928 33.9314 28.032 32.9115 28.032 31.799V27.5344L23.0297 30.4084V34.673C23.0297 35.7855 23.5961 36.8055 24.6342 37.3617L35.4885 43.4807C36.4322 44.0369 37.6592 44.0369 38.6975 43.4807L49.5518 37.3617C50.4955 36.8055 51.1563 35.7855 51.1563 34.673V22.3424C51.1563 21.2299 50.5898 20.2102 49.5518 19.6539L38.6031 13.4421Z" fill="white"/>
</g>
<defs>
<clipPath id="clip0">
<rect width="200" height="43.9453" fill="white"/>
</clipPath>
</defs>
</svg>
