<svg width="48" height="48" viewBox="0 0 48 48" fill="none" xmlns="http://www.w3.org/2000/svg">
<path d="M34 36L28.75 31L29.38 33H16.5C15.837 33 15.2011 32.7366 14.7322 32.2678C14.2634 31.7989 14 31.163 14 30.5V15.5C14 14.837 14.2634 14.2011 14.7322 13.7322C15.2011 13.2634 15.837 13 16.5 13H31.5C32.163 13 32.7989 13.2634 33.2678 13.7322C33.7366 14.2011 34 14.837 34 15.5V36ZM24 18.8C21.32 18.8 19.44 19.95 19.44 19.95C20.47 19.03 22.27 18.5 22.27 18.5L22.1 18.33C20.41 18.36 18.88 19.53 18.88 19.53C17.16 23.12 17.27 26.22 17.27 26.22C18.67 28.03 20.75 27.9 20.75 27.9L21.46 27C20.21 26.73 19.42 25.62 19.42 25.62C19.42 25.62 21.3 26.9 24 26.9C26.7 26.9 28.58 25.62 28.58 25.62C28.58 25.62 27.79 26.73 26.54 27L27.25 27.9C27.25 27.9 29.33 28.03 30.73 26.22C30.73 26.22 30.84 23.12 29.12 19.53C29.12 19.53 27.59 18.36 25.9 18.33L25.73 18.5C25.73 18.5 27.53 19.03 28.56 19.95C28.56 19.95 26.68 18.8 24 18.8ZM21.93 22.59C22.58 22.59 23.11 23.16 23.1 23.86C23.1 24.55 22.58 25.13 21.93 25.13C21.29 25.13 20.77 24.55 20.77 23.86C20.77 23.16 21.28 22.59 21.93 22.59ZM26.1 22.59C26.75 22.59 27.27 23.16 27.27 23.86C27.27 24.55 26.75 25.13 26.1 25.13C25.46 25.13 24.94 24.55 24.94 23.86C24.94 23.16 25.45 22.59 26.1 22.59Z" fill="#0EF2F2"/>
<rect x="0.5" y="0.5" width="47" height="47" rx="23.5" stroke="#0EF2F2"/>
</svg>
