<svg width="48" height="48" viewBox="0 0 48 48" fill="none" xmlns="http://www.w3.org/2000/svg">
<path d="M44 48L33.5 38L34.76 42H9C7.67392 42 6.40215 41.4732 5.46447 40.5355C4.52678 39.5979 4 38.3261 4 37V7C4 5.67392 4.52678 4.40215 5.46447 3.46447C6.40215 2.52678 7.67392 2 9 2H39C40.3261 2 41.5979 2.52678 42.5355 3.46447C43.4732 4.40215 44 5.67392 44 7V48ZM24 13.6C18.64 13.6 14.88 15.9 14.88 15.9C16.94 14.06 20.54 13 20.54 13L20.2 12.66C16.82 12.72 13.76 15.06 13.76 15.06C10.32 22.24 10.54 28.44 10.54 28.44C13.34 32.06 17.5 31.8 17.5 31.8L18.92 30C16.42 29.46 14.84 27.24 14.84 27.24C14.84 27.24 18.6 29.8 24 29.8C29.4 29.8 33.16 27.24 33.16 27.24C33.16 27.24 31.58 29.46 29.08 30L30.5 31.8C30.5 31.8 34.66 32.06 37.46 28.44C37.46 28.44 37.68 22.24 34.24 15.06C34.24 15.06 31.18 12.72 27.8 12.66L27.46 13C27.46 13 31.06 14.06 33.12 15.9C33.12 15.9 29.36 13.6 24 13.6ZM19.86 21.18C21.16 21.18 22.22 22.32 22.2 23.72C22.2 25.1 21.16 26.26 19.86 26.26C18.58 26.26 17.54 25.1 17.54 23.72C17.54 22.32 18.56 21.18 19.86 21.18ZM28.2 21.18C29.5 21.18 30.54 22.32 30.54 23.72C30.54 25.1 29.5 26.26 28.2 26.26C26.92 26.26 25.88 25.1 25.88 23.72C25.88 22.32 26.9 21.18 28.2 21.18Z" fill="#0EF2F2"/>
</svg>
