<svg width="476" height="314" viewBox="0 0 476 314" fill="none" xmlns="http://www.w3.org/2000/svg">
<path d="M238 306C368.891 306 475 252.498 475 186.5C475 120.502 368.891 67 238 67C107.109 67 1 120.502 1 186.5C1 252.498 107.109 306 238 306Z" stroke="#A4FFC8" stroke-linecap="round" stroke-linejoin="round" stroke-dasharray="2.98 2.98"/>
<path d="M331.446 153.615L237.57 22.5033L364.748 51.8724L331.446 153.615Z" fill="#101C26" stroke="#66C9D7" stroke-linecap="round" stroke-linejoin="round"/>
<path d="M374.975 213.402L254.09 283.678L331.446 153.615L374.975 213.402Z" fill="#101C26" stroke="#66C9D7" stroke-linecap="round" stroke-linejoin="round"/>
<path d="M374.975 213.401L331.446 153.614L364.748 51.8712L374.975 213.401Z" fill="#101C26" stroke="#66C9D7" stroke-linecap="round" stroke-linejoin="round"/>
<path d="M331.446 153.615L169.129 165.677L237.57 22.5033L331.446 153.615Z" fill="#101C26" stroke="#66C9D7" stroke-linecap="round" stroke-linejoin="round"/>
<path d="M169.129 165.676L112.227 232.806L102 71.2758L169.129 165.676Z" fill="#101C26" stroke="#66C9D7" stroke-linecap="round" stroke-linejoin="round"/>
<path d="M237.57 22.5033L169.129 165.677L102 71.2769L237.57 22.5033Z" fill="#101C26" stroke="#66C9D7" stroke-linecap="round" stroke-linejoin="round"/>
<path d="M222.885 1L237.57 22.5024L364.748 51.8714L222.885 1Z" fill="#101C26" stroke="#66C9D7" stroke-linecap="round" stroke-linejoin="round"/>
<path d="M237.57 22.5024L222.885 1L102 71.276L237.57 22.5024Z" fill="#101C26" stroke="#66C9D7" stroke-linecap="round" stroke-linejoin="round"/>
<path d="M169.129 165.676L254.09 283.676L112.227 232.805L169.129 165.676Z" fill="#101C26" stroke="#66C9D7" stroke-linecap="round" stroke-linejoin="round"/>
<path d="M331.446 153.615L254.09 283.678L169.129 165.677L331.446 153.615Z" fill="#101C26" stroke="#66C9D7" stroke-linecap="round" stroke-linejoin="round"/>
<path d="M402.5 313C423.211 313 440 296.658 440 276.5C440 256.342 423.211 240 402.5 240C381.789 240 365 256.342 365 276.5C365 296.658 381.789 313 402.5 313Z" fill="#101C26" stroke="#A4FFC8" stroke-linecap="round" stroke-linejoin="round"/>
</svg>
