<svg width="220" height="48" viewBox="0 0 220 48" fill="none" xmlns="http://www.w3.org/2000/svg">
<g clip-path="url(#clip0)">
<path d="M24.089 47.9015C20.6121 47.8995 17.1784 47.1311 14.0324 45.6509C10.8863 44.1708 8.10523 42.0152 5.88715 39.3378L6.30675 38.9436C8.47787 40.9653 12.1812 42.7804 16.0689 41.8204C20.5828 40.7046 24.3815 36.0763 27.058 28.4376C30.5769 18.3831 35.2339 16.107 37.6975 15.6429C40.1611 15.1788 42.5928 16.107 44.373 18.186C46.684 20.8848 48.3083 26.133 46.0355 32.8657H46.0577L45.9211 33.209C44.1558 37.5515 41.1356 41.269 37.2467 43.8862C33.3577 46.5033 28.7766 47.9013 24.089 47.9015V47.9015ZM8.3984 41.1656C11.1219 43.6956 14.4175 45.5285 18.0035 46.5077C21.5895 47.4869 25.3593 47.5833 28.9906 46.7886C32.622 45.9939 36.0069 44.3318 38.8562 41.9443C41.7054 39.5568 43.9342 36.515 45.352 33.0787L45.3775 33.0056C47.733 26.3523 46.1754 21.1804 43.9343 18.5611C42.2686 16.6156 40.0911 15.7828 37.8024 16.2119C35.4628 16.6506 31.0252 18.8503 27.6016 28.6284C24.1367 38.524 19.4924 41.5693 16.2056 42.3799C13.351 43.0888 10.5822 42.3767 8.3984 41.1656Z" fill="url(#paint0_linear)"/>
<path d="M13.9486 42.6914C10.6903 42.6914 7.74677 41.102 5.87127 39.3663L5.84902 39.3441C3.02774 36.0271 1.16879 32.0008 0.473914 27.7021C-0.220967 23.4033 0.27476 18.9964 1.9073 14.9594L1.98359 14.7719L2.58121 14.791L2.45405 15.1629C0.0890196 21.8797 1.66889 27.093 3.93538 29.7314C5.61697 31.6927 7.8167 32.5287 10.1245 32.0932C12.4864 31.645 16.959 29.4198 20.3952 19.5496C23.8729 9.56183 28.5521 6.48474 31.8644 5.66143C35.9968 4.62832 39.9449 6.54514 42.2496 8.68448L42.275 8.70991C45.0755 12.092 46.8875 16.1819 47.5112 20.5284C48.135 24.875 47.5462 29.3093 45.8098 33.3425L45.2694 33.1295C47.2562 27.4935 46.684 21.6858 43.8167 18.3544C42.1923 16.4694 40.0848 15.6588 37.8819 16.0784C35.5804 16.5139 31.2064 18.7168 27.7796 28.5552C24.3147 38.5049 19.6419 41.5883 16.3359 42.4021C15.5552 42.5969 14.7533 42.694 13.9486 42.6914V42.6914ZM6.27816 38.9563C8.50332 40.9971 12.2448 42.8217 16.177 41.8426C20.7258 40.7078 24.5436 36.0477 27.217 28.3645C30.7391 18.2495 35.3325 15.9671 37.7579 15.5094C40.1833 15.0516 42.5007 15.9576 44.2363 17.9793C45.7653 19.7563 46.9955 22.6394 47.0337 26.3396C47.3546 23.2634 47.0594 20.154 46.1654 17.1931C45.2714 14.2322 43.7965 11.4791 41.8268 9.09454C39.6302 7.06328 35.8983 5.24819 31.9725 6.23362C27.4204 7.36527 23.5931 12.0413 20.9102 19.7531C17.3913 29.8808 12.7152 32.1886 10.2167 32.659C7.71816 33.1295 5.27683 32.2013 3.48081 30.116C2.13299 28.5457 1.01723 26.1202 0.750211 23.0432C0.540077 28.8519 2.51215 34.5288 6.27816 38.9563Z" fill="url(#paint1_linear)"/>
<path d="M10.8079 37.5099H10.5377C6.14461 37.3764 2.30779 34.3311 1.0013 29.9157C0.188514 26.8853 -0.011415 23.7232 0.413217 20.6145C0.678921 18.6352 1.19152 16.6969 1.93904 14.845L2.01533 14.6574L2.60977 14.6765L2.4858 15.0484C0.117587 21.7652 1.69745 26.9785 3.96394 29.6169C5.64871 31.5782 7.84527 32.4142 10.1531 31.9788C12.5149 31.5305 16.9907 29.3054 20.427 19.4352C22.5663 13.2937 25.37 9.07861 28.7618 6.91066C30.0527 6.06415 31.5203 5.52435 33.0521 5.33261C34.5838 5.14086 36.1392 5.30226 37.5989 5.80444C40.0953 6.64018 42.244 8.28022 43.7086 10.4678C44.7016 11.9376 45.5279 13.5134 46.1722 15.166L45.6477 15.4076C43.8898 12.054 40.8794 10.1848 37.5894 10.401C32.3094 10.7538 27.3918 16.1229 24.0922 25.1602C20.0519 36.1811 13.6434 37.5099 10.8079 37.5099ZM0.778778 22.8874C0.685711 25.1983 0.942929 27.5101 1.54169 29.7441C2.78143 33.9051 6.40209 36.7915 10.5473 36.9154C15.9512 37.0871 20.6972 32.7162 23.5359 24.9472C26.9149 15.6937 32.0169 10.1753 37.5226 9.80974C38.7778 9.73412 40.0341 9.9378 41.201 10.4061C42.368 10.8745 43.4166 11.5958 44.2712 12.5181C43.9533 11.9205 43.5814 11.3387 43.2 10.7729C41.8079 8.68825 39.7645 7.12333 37.3891 6.32259C36.0106 5.84795 34.5416 5.69572 33.095 5.87757C31.6485 6.05942 30.2629 6.57052 29.0447 7.37159C25.7642 9.46643 23.0368 13.5798 20.942 19.5941L20.6718 19.5019L20.942 19.5941C17.4103 29.7409 12.7184 32.0455 10.2326 32.516C7.74673 32.9864 5.29587 32.0582 3.49984 29.9729C2.16156 28.4185 1.04262 25.9867 0.778778 22.8874Z" fill="url(#paint2_linear)"/>
<path d="M8.95153 32.7799C6.91392 32.7799 4.97166 31.8453 3.4808 30.1065C1.14438 27.3887 -0.502242 22.0928 1.78014 15.306H1.75789L1.8914 14.9627C3.43856 11.1488 5.94831 7.80139 9.17558 5.2472C12.4029 2.69301 16.2373 1.0194 20.3046 0.389769C24.3719 -0.239858 28.5329 0.196026 32.3814 1.65486C36.2299 3.1137 39.6344 5.54562 42.2623 8.71316L41.8427 9.11051C39.6493 7.07607 35.911 5.24826 31.9884 6.22415C27.4363 7.35581 23.609 12.0318 20.9261 19.7436C17.3913 29.8808 12.7152 32.1887 10.2167 32.6591C9.79984 32.7399 9.37616 32.7804 8.95153 32.7799V32.7799ZM2.46359 15.0898L2.43815 15.163C0.0731218 21.8798 1.64981 27.093 3.91948 29.7314C5.60107 31.6928 7.80081 32.5288 10.1086 32.0933C12.4673 31.6451 16.9431 29.4199 20.3793 19.5497C23.857 9.5619 28.5362 6.48481 31.8485 5.6615C34.7412 4.93991 37.5354 5.6615 39.7415 6.88534C36.9914 4.33328 33.6639 2.48557 30.0437 1.50035C26.4236 0.515131 22.6187 0.42174 18.9546 1.22817C15.2905 2.03461 11.8763 3.71685 9.00435 6.13092C6.13237 8.54499 3.88809 11.619 2.46359 15.0898V15.0898Z" fill="url(#paint3_linear)"/>
<path d="M65.4644 27.8241H61.3987V33.0215H59.8093V19.2699H65.6233C66.2403 19.2679 66.8527 19.3755 67.432 19.5878C67.9622 19.7798 68.4485 20.076 68.8625 20.4588C69.2657 20.8371 69.5842 21.2964 69.7971 21.8066C70.0258 22.3652 70.1393 22.9642 70.1308 23.5677C70.1354 24.054 70.0624 24.5379 69.9147 25.0013C69.7754 25.427 69.5683 25.8274 69.3012 26.187C69.0379 26.5382 68.7151 26.8405 68.3475 27.0803C67.9652 27.3288 67.5471 27.5175 67.1078 27.6397L70.4233 33.0437H68.5828L65.4644 27.8241ZM65.5947 26.4286C65.9971 26.4321 66.3968 26.3621 66.774 26.222C67.1203 26.0904 67.4377 25.8928 67.7086 25.6403C67.9761 25.3855 68.1863 25.0766 68.3253 24.7343C68.4766 24.3609 68.5523 23.9611 68.5478 23.5581C68.5524 23.1556 68.4745 22.7564 68.3189 22.3852C68.1734 22.0389 67.9568 21.727 67.6832 21.4697C67.4063 21.2131 67.0825 21.0123 66.7295 20.8784C66.3518 20.7353 65.9509 20.6631 65.547 20.6654H61.3987V26.4286H65.5947Z" fill="white"/>
<path d="M75.2169 19.2699H76.8064V33.0214H75.2169V19.2699Z" fill="white"/>
<path d="M82.9287 19.2699H91.9852V20.6876H84.515V25.8119H91.0156V27.2074H84.515V33.0214H82.9256L82.9287 19.2699Z" fill="white"/>
<path d="M100.161 20.6622H95.7426V19.2667H106.172V20.6622H101.76V33.0183H100.171L100.161 20.6622Z" fill="white"/>
<path d="M118.97 19.2699H128.026V20.6876H120.556V25.8119H127.057V27.2074H120.556V33.0214H118.967L118.97 19.2699Z" fill="white"/>
<path d="M132.989 19.2699H134.578V33.0214H132.989V19.2699Z" fill="white"/>
<path d="M152.354 33.0214H151.009L142.287 22.0831V33.0214H140.697V19.2699H142.013L150.768 30.24V19.2699H152.357L152.354 33.0214Z" fill="white"/>
<path d="M167.031 29.8045H159.913L158.549 33.0214H156.862L162.704 19.2699H164.249L170.082 33.0214H168.394L167.031 29.8045ZM160.501 28.4185H166.446L163.534 21.5555L163.473 21.3234L163.423 21.5555L160.501 28.4185Z" fill="white"/>
<path d="M186.278 33.0214H184.933L176.211 22.0831V33.0214H174.621V19.2699H175.934L184.689 30.24V19.2699H186.278V33.0214Z" fill="white"/>
<path d="M204.299 31.0092C203.972 31.3486 203.613 31.6563 203.228 31.9279C202.827 32.2069 202.402 32.4474 201.956 32.6463C201.502 32.8509 201.028 33.0086 200.541 33.1168C200.03 33.2289 199.508 33.2843 198.984 33.2821C197.048 33.2911 195.186 32.544 193.793 31.1999C193.347 30.7714 192.961 30.2849 192.645 29.7536C192.327 29.2164 192.079 28.6406 191.908 28.0402C191.732 27.4198 191.644 26.7778 191.647 26.1329C191.645 25.4882 191.733 24.8462 191.908 24.2256C192.079 23.623 192.326 23.045 192.645 22.5059C192.961 21.9746 193.347 21.4881 193.793 21.0596C194.242 20.6295 194.741 20.2558 195.281 19.947C196.413 19.3049 197.692 18.9675 198.993 18.9679C200.009 18.9684 201.012 19.1851 201.937 19.6037C202.817 19.9948 203.613 20.5517 204.283 21.2439L203.291 22.2866C202.762 21.6883 202.112 21.2093 201.384 20.8815C200.657 20.5588 199.873 20.387 199.077 20.3767C198.282 20.3663 197.494 20.5175 196.759 20.8211C195.71 21.2599 194.816 22.001 194.191 22.9498C193.565 23.8987 193.236 25.0123 193.246 26.1488C193.239 26.9079 193.385 27.6607 193.674 28.3628C193.962 29.0648 194.389 29.702 194.928 30.2368C195.456 30.7546 196.077 31.1677 196.759 31.4543C197.462 31.7525 198.22 31.904 198.984 31.8993C199.809 31.9046 200.625 31.7323 201.377 31.3939C202.104 31.0679 202.754 30.5924 203.285 29.9984L204.299 31.0092Z" fill="white"/>
<path d="M210.332 19.2699H219.389V20.6876H211.918V25.5194H218.419V26.9149H211.918V31.6132H219.481V33.0214H210.332V19.2699Z" fill="white"/>
</g>
<defs>
<linearGradient id="paint0_linear" x1="5.88715" y1="31.715" x2="47.129" y2="31.715" gradientUnits="userSpaceOnUse">
<stop stop-color="#7ADFF5"/>
<stop offset="0.5" stop-color="#43C3F9"/>
<stop offset="1" stop-color="#2A8DF3"/>
</linearGradient>
<linearGradient id="paint1_linear" x1="3211.65" y1="5625.48" x2="10334.6" y2="5625.48" gradientUnits="userSpaceOnUse">
<stop stop-color="#7ADFF5"/>
<stop offset="0.5" stop-color="#43C3F9"/>
<stop offset="1" stop-color="#2A8DF3"/>
</linearGradient>
<linearGradient id="paint2_linear" x1="3106.79" y1="4594.26" x2="9756.29" y2="4594.26" gradientUnits="userSpaceOnUse">
<stop stop-color="#7ADFF5"/>
<stop offset="0.5" stop-color="#43C3F9"/>
<stop offset="1" stop-color="#2A8DF3"/>
</linearGradient>
<linearGradient id="paint3_linear" x1="2876.01" y1="4140.42" x2="8313.18" y2="4140.42" gradientUnits="userSpaceOnUse">
<stop stop-color="#7ADFF5"/>
<stop offset="0.5" stop-color="#43C3F9"/>
<stop offset="1" stop-color="#2A8DF3"/>
</linearGradient>
<clipPath id="clip0">
<rect width="219.656" height="48" fill="white"/>
</clipPath>
</defs>
</svg>
