<svg width="48" height="48" viewBox="0 0 48 48" fill="none" xmlns="http://www.w3.org/2000/svg">
<path d="M44.92 12C43.38 12.7 41.72 13.16 40 13.38C41.76 12.32 43.12 10.64 43.76 8.62C42.1 9.62 40.26 10.32 38.32 10.72C36.74 9 34.52 8 32 8C27.3 8 23.46 11.84 23.46 16.58C23.46 17.26 23.54 17.92 23.68 18.54C16.56 18.18 10.22 14.76 6.00003 9.58C5.26003 10.84 4.84003 12.32 4.84003 13.88C4.84003 16.86 6.34003 19.5 8.66003 21C7.24003 21 5.92003 20.6 4.76003 20C4.76003 20 4.76003 20 4.76003 20.06C4.76003 24.22 7.72003 27.7 11.64 28.48C10.92 28.68 10.16 28.78 9.38003 28.78C8.84003 28.78 8.30003 28.72 7.78003 28.62C8.86003 32 12 34.52 15.78 34.58C12.86 36.9 9.16003 38.26 5.12003 38.26C4.44003 38.26 3.76003 38.22 3.08003 38.14C6.88003 40.58 11.4 42 16.24 42C32 42 40.66 28.92 40.66 17.58C40.66 17.2 40.66 16.84 40.64 16.46C42.32 15.26 43.76 13.74 44.92 12Z" fill="#0EF2F2"/>
</svg>
