<?xml version="1.0" standalone="no"?>
<!DOCTYPE svg PUBLIC "-//W3C//DTD SVG 20010904//EN"
 "http://www.w3.org/TR/2001/REC-SVG-20010904/DTD/svg10.dtd">
<svg version="1.0" xmlns="http://www.w3.org/2000/svg"
 width="700.000000pt" height="700.000000pt" viewBox="0 0 700.000000 700.000000"
 preserveAspectRatio="xMidYMid meet">
<metadata>
Created by potrace 1.14, written by Peter Selinger 2001-2017
</metadata>
<g transform="translate(0.000000,700.000000) scale(0.100000,-0.100000)"
fill="#000000" stroke="none">
<path d="M3397 6984 c-1 -1 -56 -4 -122 -8 -355 -18 -781 -116 -1110 -256
-723 -306 -1298 -812 -1685 -1484 -363 -630 -512 -1356 -434 -2111 9 -83 44
-285 65 -375 11 -47 22 -93 24 -102 30 -141 140 -444 227 -628 180 -376 399
-679 723 -1003 530 -528 1249 -881 1980 -972 28 -4 61 -8 75 -11 139 -23 519
-23 752 1 140 14 376 60 518 100 69 20 132 38 140 40 8 2 66 21 127 43 819
294 1503 898 1900 1677 51 101 132 284 138 314 2 9 20 61 40 116 58 160 123
398 150 550 20 111 26 149 31 201 3 32 7 64 9 71 6 19 19 267 19 373 0 96 -12
324 -18 357 -2 10 -7 46 -11 78 -4 33 -9 69 -11 80 -2 11 -7 39 -10 61 -3 23
-19 100 -35 170 -16 71 -32 140 -35 154 -3 14 -30 99 -60 189 -30 90 -54 170
-54 176 0 32 -116 285 -203 440 -68 123 -205 328 -262 395 -157 182 -357 389
-485 504 -80 72 -299 237 -400 301 -463 297 -950 470 -1512 539 -87 11 -462
27 -471 20z m413 -98 c14 -2 48 -7 75 -10 257 -26 659 -128 870 -221 17 -7 64
-27 105 -45 207 -87 572 -305 712 -425 13 -11 43 -36 68 -55 99 -77 101 -84
17 -45 -152 68 -335 121 -492 140 -64 8 -265 8 -330 0 -72 -9 -225 -43 -298
-66 -143 -46 -394 -187 -503 -281 -112 -98 -146 -129 -202 -187 -324 -336
-607 -836 -847 -1501 -200 -554 -369 -893 -602 -1205 -257 -344 -559 -566
-873 -642 -76 -18 -265 -25 -336 -12 -27 5 -58 11 -69 13 -46 9 -150 49 -211
81 -299 159 -528 486 -639 911 -13 52 -27 115 -30 142 -4 26 -8 54 -10 62 -19
73 -27 438 -11 570 35 305 127 643 241 877 356 738 979 1330 1732 1646 96 40
359 135 373 134 3 0 31 8 62 17 150 43 406 88 588 102 47 4 87 8 89 10 6 5
493 -4 521 -10z m1390 -771 c353 -61 749 -267 937 -489 58 -67 205 -279 268
-386 10 -17 13 -19 -90 63 -33 26 -64 51 -70 55 -37 28 -169 97 -243 126 -157
62 -278 84 -457 84 -274 0 -536 -86 -800 -263 -169 -112 -320 -250 -480 -435
-322 -373 -571 -822 -830 -1501 -90 -235 -147 -364 -236 -535 -211 -408 -479
-733 -776 -940 -188 -132 -444 -238 -623 -260 -19 -2 -47 -7 -62 -10 -72 -15
-319 -3 -436 20 -452 92 -851 436 -1031 889 -30 76 -69 214 -91 322 -17 80
-17 82 -26 145 -4 30 -9 57 -9 60 -1 3 -5 37 -9 75 -4 39 -9 84 -11 100 -7 51
-18 330 -12 325 2 -3 8 -29 11 -59 11 -95 47 -241 87 -358 191 -553 580 -898
1040 -920 246 -12 468 55 702 211 413 276 779 817 1052 1556 25 69 71 193 102
275 420 1132 1031 1783 1743 1858 49 5 308 -1 350 -8z m557 -649 c287 -50 566
-231 763 -496 35 -47 78 -117 95 -155 69 -151 160 -450 200 -661 8 -44 17 -89
19 -100 2 -12 10 -66 16 -120 6 -55 14 -117 16 -139 3 -22 7 -128 8 -235 3
-216 -6 -295 -18 -165 -14 152 -66 363 -128 517 -103 257 -259 478 -435 617
-43 34 -84 66 -90 71 -15 12 -139 75 -179 91 -252 99 -546 79 -812 -55 -73
-37 -227 -138 -277 -181 -129 -113 -168 -150 -245 -237 -286 -322 -527 -763
-738 -1348 -61 -168 -104 -281 -127 -335 -7 -16 -25 -59 -40 -95 -44 -105
-162 -344 -222 -448 -352 -614 -768 -984 -1229 -1091 -115 -26 -157 -32 -274
-35 -238 -7 -484 51 -722 169 -110 55 -293 175 -363 239 -27 25 -53 45 -56 46
-9 0 -155 189 -221 285 -94 137 -223 362 -263 460 l-17 40 38 -45 c143 -169
323 -305 527 -399 88 -41 254 -95 324 -106 21 -3 63 -9 93 -14 95 -16 343 -6
457 18 239 50 444 142 658 296 144 103 319 276 452 445 211 270 377 587 559
1065 277 726 576 1232 948 1600 411 409 843 578 1283 501z m66 -826 c377 -66
694 -376 846 -827 28 -82 66 -240 77 -318 2 -16 7 -57 11 -90 11 -80 10 -460
0 -560 -7 -66 -33 -225 -51 -310 -13 -61 -58 -228 -76 -280 -11 -33 -23 -73
-26 -90 -2 -16 -43 -106 -89 -200 -364 -733 -973 -1302 -1728 -1612 -162 -66
-414 -148 -517 -167 -14 -2 -47 -9 -75 -15 -27 -6 -63 -13 -80 -16 -81 -14
-160 -26 -201 -31 -26 -3 -63 -7 -83 -10 -20 -3 -142 -6 -271 -8 -218 -4 -322
1 -460 19 -82 11 -90 12 -160 24 -70 12 -82 14 -150 30 -25 5 -58 12 -74 15
-29 5 -117 31 -236 68 -417 132 -885 399 -1195 682 l-40 37 62 -31 c350 -170
751 -221 1073 -134 30 8 62 16 70 18 8 2 42 14 75 26 601 218 1117 863 1480
1850 164 446 206 547 325 785 58 116 134 256 170 313 297 472 634 749 1005
825 88 18 236 21 318 7z"/>
</g>
</svg>
